<?xml version="1.0" encoding="UTF-8"?><svg id="Layer_2" xmlns="http://www.w3.org/2000/svg" viewBox="0 0 234.86 50"><g id="Layer_1-2"><path d="M73.55,26.6v-.59c0-1.47-.5-2.6-1.51-3.38-.98-.81-2.26-1.22-3.85-1.22-1.22,0-2.18.21-2.88.63-.67.39-1.31.99-1.92,1.8-.18.24-.38.41-.6.5-.21.09-.5.14-.87.14h-1.37c-.34,0-.64-.12-.92-.36-.24-.24-.35-.53-.32-.86.09-.9.53-1.79,1.33-2.66.82-.9,1.91-1.64,3.25-2.21,1.34-.57,2.78-.86,4.3-.86,2.84,0,5.13.78,6.87,2.34,1.77,1.56,2.66,3.76,2.66,6.58v13.75c0,.33-.12.62-.37.86s-.53.36-.87.36h-1.69c-.34,0-.63-.12-.87-.36-.24-.24-.37-.53-.37-.86v-1.85c-.49,1.08-1.53,1.94-3.11,2.57-1.59.63-3.17.95-4.76.95s-2.94-.27-4.17-.81c-1.22-.57-2.17-1.34-2.84-2.3-.64-.96-.96-2.04-.96-3.25,0-2.25.85-4.01,2.56-5.27,1.71-1.29,3.98-2.16,6.82-2.61l6.45-1.04ZM73.55,30.21l-5.4.86c-1.98.3-3.52.8-4.62,1.49-1.1.66-1.65,1.5-1.65,2.52,0,.75.35,1.43,1.05,2.03.7.6,1.77.9,3.2.9,2.2,0,3.98-.62,5.36-1.85,1.37-1.23,2.06-2.84,2.06-4.82v-1.13Z"/><path d="M88.56,40.22c0,.33-.12.62-.37.86-.24.24-.53.36-.87.36h-1.69c-.34,0-.63-.12-.87-.36-.24-.24-.37-.53-.37-.86V10.65c0-.33.12-.62.37-.86.24-.24.53-.36.87-.36h1.69c.34,0,.63.12.87.36.24.24.37.53.37.86v29.57Z"/><path d="M105.05,38.01c3.05,0,5.11-1.17,6.18-3.52.21-.45.43-.77.64-.95.21-.18.5-.27.87-.27h1.37c.34,0,.63.12.87.36.24.21.37.47.37.77,0,1.02-.41,2.12-1.24,3.29-.82,1.17-2.01,2.16-3.57,2.98-1.56.81-3.39,1.22-5.49,1.22s-4.04-.45-5.63-1.35c-1.59-.9-2.81-2.13-3.66-3.7-.85-1.59-1.33-3.37-1.42-5.32-.03-.36-.05-1.05-.05-2.07,0-.72.01-1.23.05-1.53.27-3.07,1.33-5.56,3.16-7.48,1.83-1.92,4.35-2.89,7.55-2.89,2.11,0,3.92.41,5.45,1.22,1.56.78,2.73,1.76,3.52,2.93.82,1.14,1.27,2.22,1.33,3.25.03.33-.09.62-.37.86-.24.24-.53.36-.87.36h-1.37c-.37,0-.66-.09-.87-.27-.21-.18-.43-.5-.64-.95-1.07-2.34-3.13-3.52-6.18-3.52-1.68,0-3.14.56-4.39,1.67-1.25,1.11-1.97,2.79-2.15,5.05-.03.33-.05.87-.05,1.62,0,.69.02,1.2.05,1.53.21,2.25.93,3.94,2.15,5.05,1.25,1.11,2.72,1.67,4.39,1.67Z"/><path d="M141.98,40.22c0,.33-.12.62-.37.86-.24.24-.53.36-.87.36h-1.69c-.34,0-.63-.12-.87-.36s-.37-.53-.37-.86v-11.9c0-2.25-.56-3.97-1.69-5.14-1.13-1.17-2.7-1.76-4.71-1.76s-3.56.59-4.71,1.76c-1.13,1.17-1.69,2.89-1.69,5.14v11.9c0,.33-.12.62-.37.86s-.53.36-.87.36h-1.69c-.34,0-.63-.12-.87-.36-.24-.24-.37-.53-.37-.86V10.65c0-.33.12-.62.37-.86.24-.24.53-.36.87-.36h1.69c.34,0,.63.12.87.36.24.24.37.53.37.86v9.96c.67-.87,1.59-1.59,2.75-2.16,1.19-.6,2.64-.9,4.35-.9,1.92,0,3.63.41,5.13,1.22,1.5.81,2.65,1.98,3.48,3.52.85,1.5,1.28,3.29,1.28,5.36v12.58Z"/><path d="M158.02,17.54c3.26,0,5.84,1.02,7.74,3.07s2.84,4.82,2.84,8.34v1.22c0,.33-.12.62-.37.86s-.53.36-.87.36h-15.75v.27c.06,1.98.67,3.55,1.83,4.69,1.19,1.11,2.72,1.67,4.58,1.67,1.53,0,2.7-.2,3.52-.59.85-.39,1.62-.95,2.29-1.67.24-.24.46-.41.64-.5.21-.09.49-.14.82-.14h1.37c.37,0,.67.12.92.36.24.24.35.53.32.86-.12.81-.58,1.65-1.37,2.52-.76.84-1.88,1.56-3.34,2.16-1.43.57-3.16.86-5.17.86s-3.69-.44-5.22-1.31c-1.53-.9-2.75-2.13-3.66-3.7-.89-1.56-1.42-3.32-1.6-5.27-.06-.9-.09-1.59-.09-2.07s.03-1.17.09-2.07c.18-1.86.72-3.55,1.6-5.05.92-1.5,2.12-2.69,3.62-3.56,1.53-.87,3.28-1.31,5.26-1.31ZM164.47,27.6v-.14c0-1.83-.59-3.29-1.79-4.37-1.16-1.11-2.72-1.67-4.67-1.67-1.77,0-3.28.56-4.53,1.67-1.22,1.11-1.85,2.57-1.88,4.37v.14h12.86Z"/><path d="M178.28,20.61c.73-.93,1.56-1.67,2.47-2.21.92-.57,2.14-.86,3.66-.86,3.57,0,6.07,1.31,7.51,3.92.88-1.26,1.89-2.22,3.02-2.89,1.13-.69,2.61-1.04,4.44-1.04,2.99,0,5.2.89,6.64,2.66,1.46,1.77,2.2,4.28,2.2,7.53v12.49c0,.33-.12.62-.37.86-.24.24-.53.36-.87.36h-1.69c-.34,0-.63-.12-.87-.36s-.37-.53-.37-.86v-12.04c0-4.51-1.8-6.76-5.4-6.76-1.65,0-2.96.54-3.94,1.62-.98,1.08-1.47,2.69-1.47,4.82v12.35c0,.33-.12.62-.37.86s-.53.36-.87.36h-1.69c-.34,0-.63-.12-.87-.36s-.37-.53-.37-.86v-12.04c0-4.51-1.8-6.76-5.4-6.76-1.65,0-2.96.54-3.94,1.62-.98,1.08-1.46,2.69-1.46,4.82v12.35c0,.33-.12.62-.37.86s-.53.36-.87.36h-1.69c-.34,0-.63-.12-.87-.36-.24-.24-.37-.53-.37-.86v-21.01c0-.33.12-.62.37-.86.24-.24.53-.36.87-.36h1.69c.34,0,.63.12.87.36.24.24.37.53.37.86v1.4Z"/><path d="M221.03,48.92c-.27.72-.72,1.08-1.33,1.08h-1.88c-.3,0-.56-.11-.78-.32-.21-.21-.32-.47-.32-.77,0-.12.01-.23.05-.32l4.39-9.42-9.06-19.79c-.03-.09-.05-.2-.05-.32,0-.3.11-.56.32-.77.21-.21.47-.32.78-.32h1.88c.61,0,1.05.36,1.33,1.08l7.05,15.33,7.14-15.33c.27-.72.72-1.08,1.33-1.08h1.88c.31,0,.56.11.78.32.21.21.32.47.32.77,0,.12-.01.23-.05.32l-13.78,29.53Z"/><path d="M40.41,26.52L25.04.43c-.07-.13-.18-.24-.31-.31C24.59.04,24.45,0,24.3,0c-.15,0-.3.04-.43.11-.13.07-.24.18-.32.31l-4.6,7.82c-.15.26-.23.55-.23.84s.08.59.23.84l10.02,17.02c.15.26.37.47.63.62.26.15.56.23.86.23h9.21c.15,0,.3-.04.43-.11.13-.07.24-.18.31-.31.08-.13.12-.27.12-.42,0-.15-.04-.29-.11-.42Z"/><path d="M.12,40.16L15.49,14.07c.08-.13.18-.23.31-.31.13-.07.28-.11.43-.11s.3.04.43.11c.13.07.24.18.31.31l4.61,7.81c.15.26.23.55.23.84s-.08.59-.23.84l-10.02,17.02c-.15.26-.37.47-.63.62-.26.15-.56.23-.86.23H.86c-.15,0-.3-.04-.43-.11-.13-.07-.24-.18-.32-.31-.08-.13-.12-.28-.11-.42,0-.15.04-.29.12-.42Z"/><path d="M16.97,41.42h30.74c.15,0,.3-.04.43-.11.13-.07.24-.18.31-.31.08-.13.11-.27.11-.42,0-.15-.04-.29-.12-.42l-4.6-7.82c-.15-.26-.37-.47-.63-.62-.26-.15-.56-.23-.86-.23h-20.04c-.3,0-.6.08-.86.23-.26.15-.48.36-.63.62l-4.6,7.82c-.08.13-.12.27-.12.42,0,.15.04.29.11.42.08.13.18.23.31.31.13.07.28.11.43.11Z"/></g></svg>