<?xml version="1.0" encoding="UTF-8"?><svg id="Layer_2" xmlns="http://www.w3.org/2000/svg" viewBox="0 0 169.44 44.82"><defs><style>.cls-1{fill:#0a0b0d;fill-rule:evenodd;}</style></defs><g id="Layer_1-2"><path class="cls-1" d="M44.82,22.41c0,12.38-10.05,22.41-22.45,22.41S.96,35.79,0,24.29h29.67v-3.77H0C.96,9.03,10.61,0,22.37,0c12.4,0,22.45,10.03,22.45,22.41ZM128.04,40.76c7.78,0,12.88-4.19,12.88-10.51,0-5.86-3.84-8.64-9.65-9.6l-5.15-.86c-3.94-.66-6.57-2.37-6.57-6.16s2.93-6.77,8.49-6.77,8.18,2.73,8.49,6.62h3.89c-.3-5.15-4.24-9.75-12.32-9.75s-12.37,4.5-12.37,10.05c0,5.91,3.99,8.64,9.45,9.55l5.2.81c4.34.76,6.77,2.53,6.77,6.26,0,4.39-3.59,7.22-9.04,7.22s-9.19-2.73-9.5-7.37h-3.84c.3,6.06,4.95,10.51,13.28,10.51ZM70.7,40.05h-14.14V4.49h13.64c6.01,0,10.2,3.54,10.2,9.19,0,4.09-2.32,6.82-6.06,7.73v.15c4.44.86,7.17,3.89,7.17,8.64,0,6.11-4.5,9.85-10.81,9.85ZM69.69,20.1c4.29,0,6.92-2.32,6.92-5.96v-.51c0-3.64-2.63-5.91-6.92-5.91h-9.34v12.37h9.34ZM70.14,36.82c4.7,0,7.58-2.58,7.58-6.52v-.51c0-4.09-2.93-6.57-7.63-6.57h-9.75v13.59h9.8ZM112.1,40.05h-4.04l-3.03-9.65h-14.14l-3.03,9.65h-3.84l11.67-35.56h4.6l11.82,35.56ZM98.16,8.38h-.3l-5.96,18.84h12.17l-5.91-18.84ZM146.61,40.05V4.49h22.83v3.28h-19.04v12.22h17.53v3.23h-17.53v13.54h19.04v3.28h-22.83Z"/></g></svg>