<?xml version="1.0" encoding="UTF-8"?><svg id="Layer_2" xmlns="http://www.w3.org/2000/svg" viewBox="0 0 305.73 44.41"><defs><style>.cls-1{fill:#0a0b0d;fill-rule:evenodd;}</style></defs><g id="Layer_1-2"><path class="cls-1" d="M16.07,0c1.17,0,2.12.95,2.12,2.12v5.02c0,1.17-.95,2.12-2.12,2.12h-4.7c-1.17,0-2.12.95-2.12,2.12v30.93c0,1.17-.95,2.12-2.12,2.12H2.12c-1.17,0-2.12-.95-2.12-2.12V11.37c0-1.17.95-2.12,2.12-2.12h4.7c1.17,0,2.12-.95,2.12-2.12V2.12c0-1.17.95-2.12,2.12-2.12h5.02ZM34.58,0c1.17,0,2.12.95,2.12,2.12v5.02c0,1.17.95,2.12,2.12,2.12h4.7c1.17,0,2.12.95,2.12,2.12v30.93c0,1.17-.95,2.12-2.12,2.12h-5.02c-1.17,0-2.12-.95-2.12-2.12V11.37c0-1.17-.95-2.12-2.12-2.12h-4.7c-1.17,0-2.12-.95-2.12-2.12V2.12c0-1.17.95-2.12,2.12-2.12h5.02ZM25.32,17.71c1.17,0,2.12.95,2.12,2.12v13.74c0,1.17-.95,2.12-2.12,2.12h-5.02c-1.17,0-2.12-.95-2.12-2.12v-13.74c0-1.17.95-2.12,2.12-2.12h5.02ZM95.54,10.09h2.89v28.09s5.06,0,5.06,0V5.28h-7.95v4.81ZM81.62,6.3h-13.79v31.91h14.55c6.2,0,9.62-4.04,9.62-9.17.05-1.79-.47-3.54-1.47-4.99-1-1.45-2.44-2.52-4.08-3.04v-.15c1.27-.56,2.35-1.51,3.09-2.72.74-1.21,1.12-2.63,1.07-4.06,0-4.59-3.16-7.78-9-7.78ZM85.5,14.99c0,2.58-1.58,4.27-3.78,4.27h-8.75v-8.54h8.75c2.2,0,3.78,1.69,3.78,4.27ZM86.89,28.68c0,3.04-1.92,5.13-4.55,5.13h-9.37v-10.22h9.37c2.63,0,4.55,2.04,4.55,5.08ZM108.18,26.39c0-7.23,5.13-12.56,12.21-12.56s12.25,5.28,12.25,12.56-5.12,12.51-12.25,12.51-12.21-5.28-12.21-12.51ZM119.06,34.16h2.74c3.11,0,5.84-3.44,5.84-7.78s-2.74-7.83-5.84-7.83h-2.74c-3.11,0-5.84,3.56-5.84,7.83s2.73,7.78,5.84,7.78ZM147.87,13.83c-7.04,0-11.93,5.13-11.93,12.51s4.83,12.56,11.85,12.6c5.77,0,10.26-3.19,10.94-9.32h-4.93c-.11,1.27-.67,2.45-1.57,3.31-.9.86-2.09,1.33-3.31,1.33h-2.39c-3.06,0-5.55-3.53-5.55-7.87s2.49-7.83,5.55-7.83h2.39c2.2,0,4.36,1.4,4.83,4.54h4.93c-.72-6.22-5.17-9.26-10.82-9.26ZM163.28,5.28h5.03v18.15h3.64l6.8-8.92h5.74l-8.38,11.01,8.76,12.66h-6.03l-7.32-10.47h-3.21v10.47h-5.03V5.28ZM192.01,31.07h-4.83c.18,5.18,3.42,7.83,10.09,7.82,6.89,0,10-2.69,10-7.58,0-3.79-2.01-6.23-6.37-6.78l-5.37-.71c-2.06-.3-3.02-1.35-3.02-2.89s1.01-2.74,3.16-2.74h2.88c2.49,0,3.3,1.45,3.54,3.49h4.83c-.18-5.43-3.73-7.87-9.57-7.87s-9.53,2.59-9.53,7.38c0,3.64,2.01,6.43,6.51,6.98l5.32.71c2.06.31,2.92,1.25,2.92,2.85s-1.05,2.79-3.3,2.79h-3.17c-2.62,0-3.86-1.35-4.1-3.44ZM210.42,26.34c0-7.38,4.88-12.51,11.93-12.51,5.65,0,10.1,3.04,10.82,9.26h-4.93c-.48-3.14-2.63-4.54-4.83-4.54h-2.39c-3.07,0-5.56,3.49-5.56,7.83s2.49,7.87,5.56,7.87h2.39c1.22,0,2.4-.47,3.31-1.33s1.47-2.04,1.57-3.31h4.93c-.68,6.13-5.17,9.32-10.94,9.32-7.01-.04-11.85-5.23-11.85-12.6ZM248.61,13.83c-7.08,0-12.21,5.33-12.21,12.56s5.07,12.51,12.21,12.51,12.26-5.23,12.26-12.51-5.18-12.56-12.26-12.56ZM250.01,34.16h-2.72c-3.11,0-5.85-3.5-5.85-7.78s2.73-7.83,5.84-7.83h2.74c3.11,0,5.85,3.5,5.85,7.83s-2.74,7.78-5.85,7.78ZM265.04,29.43v-14.9h5.03v14.01c0,3.44,1.68,5.48,3.88,5.48h2.74c2.35,0,4.45-2.24,4.45-5.48v-14.01h5.03v23.67h-4.89v-3.24c-1.37,2.44-3.78,3.94-7.47,3.94-5.51,0-8.77-3.35-8.77-9.48ZM294.53,19.14v13.53c0,3.54,2.05,5.53,5.73,5.54h5.47v-4.73h-4.02c-1.63,0-2.11-.75-2.11-2.29v-12.06h5.94v-4.59h-5.94v-6.64h-5.07v6.64h-4.4v4.61h4.4Z"/></g></svg>