<?xml version="1.0" encoding="UTF-8"?><svg id="Layer_2" xmlns="http://www.w3.org/2000/svg" viewBox="0 0 177.12 40"><defs><style>.cls-1{fill-rule:evenodd;}</style></defs><g id="Layer_1-2"><path d="M157.09,34.69c8.13,0,14.65-6.58,14.65-14.71s-6.52-14.65-14.65-14.65-14.65,6.58-14.65,14.65c.02,8.06,6.59,14.71,14.65,14.71ZM137.12,0h40v40h-40V0Z"/><path class="cls-1" d="M78.74,26.04c-2.34,5.09-7.44,8.64-13.39,8.64-7.89,0-14.36-6.3-14.65-14.14h34.67V0h-39.98v40h40v-13.96h-6.65ZM51.34,15.62h27.93c-2.05-6.81-7.55-10.29-13.9-10.29s-12.27,3.72-14.03,10.29h0Z"/><path d="M40,0H0v40h40v-13.96h-6.63c-2.29,5.09-7.44,8.64-13.33,8.64-8.13,0-14.71-6.63-14.71-14.71s6.58-14.65,14.71-14.65c6.01,0,11.15,3.66,13.44,8.86h6.52V0h0Z"/><path d="M132.12,26.04h-6.63c-2,5.26-7.38,8.59-13.5,8.59-7.89,0-14.54-5.71-14.54-14.65V0h-6.76v40h41.43v-13.96h0Z"/></g></svg>