<?xml version="1.0" encoding="UTF-8"?><svg id="Layer_2" xmlns="http://www.w3.org/2000/svg" viewBox="0 0 206.19 68.56"><defs><style>.cls-1{fill:#231f20;}.cls-2{fill:#e2e2e2;}.cls-3{fill:#688fdd;}.cls-4{fill:#898989;}</style></defs><g id="Layer_1-2"><path class="cls-3" d="M9.66,58.08v-4.41L22.94,15.03h6.28l13.28,38.45.04,4.59H9.66Z"/><path class="cls-1" d="M0,68.56v-6.95L21.16,0h9.76l21.26,61.61v6.95H0Z"/><path class="cls-4" d="M9.66,58.08v-4.41L22.94,15.03h6.28l13.28,38.45.04,4.59H9.66Z"/><path class="cls-2" d="M18.61,49.13v-2.33l5.94-17.36,3.02-.05,5.97,17.36v2.39h-14.94,0Z"/><path class="cls-1" d="M158.3,54.63h-7.59v-9.5h-25.55v9.45h-7.9c0-3.72-.11-7.38.03-11.03.18-5.01-.12-10.18.98-15.02,2.08-9.18,9.4-14.35,19.57-14.65,5.32-.16,10.66-.07,15.99-.02,3.07.03,4.65,1.47,4.66,4.31.04,11.86,0,23.71,0,35.57,0,.23-.08.46-.17.9h0ZM150.58,21.71c-4.08,0-7.94-.03-11.78.02-1.2.02-2.41.15-3.6.37-7.03,1.27-11.55,8.15-9.72,14.72h25.1v-15.1h0Z"/><path class="cls-1" d="M165.36,54.63v-7.65h2.72c8.31,0,16.62.06,24.95-.06,1.4-.03,3.28-.55,4.02-1.53.8-1.06.94-2.99.66-4.41-.35-1.81-1.99-2.6-3.87-2.6-5.57,0-11.14.09-16.71-.05-4.73-.12-8.77-1.91-10.85-6.35-2.08-4.45-1.98-9.01.89-13.21,2.26-3.31,5.67-4.79,9.53-4.86,7.99-.16,15.99-.04,23.97-.09,1.39,0,1.77.52,1.84,1.83.29,6.06.33,6.06-5.78,6.06s-12.27-.04-18.41.02c-3.75.04-5.35,1.4-5.35,4.36,0,2.51,1.13,4.03,3.67,4.12,5.23.19,10.5-.04,15.72.26,2.66.16,5.52.62,7.86,1.8,4.99,2.49,7.01,8.18,5.5,13.83-1.41,5.23-5.78,8.6-11.39,8.62-9.03.04-18.08.02-27.12,0-.56,0-1.11-.05-1.83-.1h0,0Z"/><path class="cls-1" d="M81.93,21.59c0,7.97-.04,15.41.02,22.85.02,2.12,1.56,2.54,3.35,2.54,7.75,0,15.49,0,23.25,0h2.76v7.59c-.67.05-1.35.16-2.05.16-8.31,0-16.62-.05-24.94.04-4.62.05-10.17-3.37-10.23-9.36-.1-9.05-.19-18.1-.15-27.15.02-3.02,1.52-4.38,4.57-4.39,10.33-.05,20.66,0,30.99-.05,1.43,0,2.06.4,1.98,1.91-.1,1.83-.03,3.66-.03,5.86h-29.53,0Z"/><path class="cls-1" d="M107.88,38.29h-23.38v-7.74h23.38v7.74h0Z"/></g></svg>