<?xml version="1.0" encoding="UTF-8"?><svg id="Layer_2" xmlns="http://www.w3.org/2000/svg" viewBox="0 0 146.04 61.25"><defs><style>.cls-1{fill:#0a0b0d;}</style></defs><g id="Layer_1-2"><path class="cls-1" d="M67.6,29.62l-.12-1.01c1.62-.65,1.91-1.54,2.03-3.32.12-1.33.12-3.12.12-4.53v-10.76c0-1.42,0-3.2-.12-4.53-.12-1.78-.41-2.67-2.03-3.32l.12-1.01c1.58.12,2.67.12,3.69.12h7.45c1.66,0,2.92,0,4.5-.12.28,2.06.44,3.56.57,5.79l-1.18.2c-.53-1.5-.97-2.35-1.58-3-.61-.65-1.54-.97-2.31-1.09-1.01-.16-1.91-.2-3.48-.2-1.91,0-2.15.32-2.27,1.94-.12,1.25-.12,2.71-.12,4.17v5.18c1.38,0,4.22-.08,5.51-.2,1.82-.2,2.39-.85,3-2.71l.97.2c-.12,1.58-.12,2.47-.12,3.48s0,1.94.12,3.52l-.97.2c-.61-1.86-1.18-2.47-3-2.71-1.3-.16-4.17-.2-5.51-.2v5.46c0,1.42.08,3.6.12,4.41.08,1.98.77,2.35,2.59,2.35s3.2-.04,4.29-.2c1.42-.2,2.07-.77,2.67-1.62.49-.77.89-1.62,1.42-3.12l1.09.2c-.2,2.43-.53,4.41-.97,6.51-2.96-.16-6.64-.2-11.83-.2-1.99,0-3.08,0-4.66.12h0Z"/><path class="cls-1" d="M89.92,16.95c.57-1.54.69-2.31.69-2.71,0-.24-.12-.37-.32-.37-.41,0-1.22.65-3.08,2.83l-.77-.69c2.31-3.36,3.97-4.9,5.31-4.9.85,0,1.62.77,1.62,1.98,0,1.3-.65,3.07-1.25,4.74l-2.63,7.44c-.44,1.21-.53,1.54-.53,1.7,0,.2.16.4.41.4.44,0,1.25-.44,3.24-3.28l.81.57c-2.15,4.17-4.01,5.3-5.43,5.3-.93,0-1.74-.81-1.74-1.86,0-.93.28-1.82,1.25-4.45l2.43-6.72h0ZM93.04,0c1.22,0,2.15.93,2.15,2.14s-.93,2.14-2.15,2.14-2.15-.93-2.15-2.14.93-2.14,2.15-2.14Z"/><path class="cls-1" d="M108.41,3.94c.97,1.09,1.34,2.47,1.34,3.97,0,3.96-2.92,6.8-6.48,6.8-1.82,0-3.16-.53-4.34-1.5-1.25.97-1.54,1.9-1.54,2.83,0,1.17.93,1.94,2.76,2.02l4.9.16c3.93.12,5.83,2.47,5.83,5.5,0,3.64-3.61,6.84-9.24,6.84-4.58,0-6.89-2.02-6.89-4.77,0-1.9.93-3.4,3.24-4.98-1.74-.61-2.92-1.94-2.92-3.84,0-1.58.73-3.2,2.8-4.77-.93-1.25-1.38-2.55-1.38-4.29,0-3.81,3.04-6.8,6.6-6.8,2.35,0,2.96.81,5.27.81,1.01,0,2.43-.04,3.85-.16l.32.69-.32,1.5h-3.81,0ZM104.32,21.3c-1.82,0-3.28,0-4.94-.12-1.42,1.33-1.99,2.67-1.99,3.93,0,1.74,1.5,3.2,4.9,3.2,4.66,0,6.36-1.98,6.36-3.88s-1.3-3.12-4.34-3.12h0ZM99.62,7.66c0,3.56,1.38,5.42,3.65,5.42,2.11,0,3.41-1.42,3.41-4.98,0-3.36-1.42-5.38-3.65-5.38-1.99,0-3.41,1.54-3.41,4.94h0Z"/><path class="cls-1" d="M120.36,11.48c3.89,0,6.85,2.87,6.85,6.76,0,.32,0,.61-.08.93h-12.48c-.08.49-.08.93-.08,1.54,0,4.17,2.51,7,5.76,7,2.59,0,4.17-.89,5.83-3.28l.97.61c-1.22,3.04-3.61,5.54-7.21,5.54-5.07,0-8.43-4.29-8.43-9.23,0-5.63,3.85-9.87,8.87-9.87h0ZM123.64,17.55c-.04-2.75-1.91-4.25-4.17-4.25-2.47,0-4.05,1.86-4.54,4.25h8.71Z"/><path class="cls-1" d="M144.02,11.44c0,1.25,0,2.67.08,3.93.12,1.66.37,2.31,1.86,2.91l-.12.93c-1.42-.12-2.31-.12-3.24-.12s-1.82,0-3.24.12l-.12-.93c1.5-.61,1.7-1.25,1.82-2.91.12-1.25.12-2.67.12-3.93v-4.29c0-2.26-1.38-3.81-3.53-3.81-2.8,0-4.54,1.9-4.54,4.49v3.6c0,1.25,0,2.67.08,3.93.12,1.66.37,2.31,1.86,2.91l-.12.93c-1.42-.12-2.31-.12-3.24-.12s-1.82,0-3.24.12l-.12-.93c1.5-.61,1.7-1.25,1.82-2.91.12-1.25.12-2.67.12-3.93v-1.01c0-1.25,0-2.55-.12-3.81-.12-1.66-.53-2.02-1.99-2.31v-.85c1.86-.89,2.88-1.54,4.29-2.83l.85.32c-.12,1.3-.2,2.39-.24,3.4l.04.04c1.09-2.06,3-3.68,5.43-3.68,1.99,0,3.65.93,4.62,2.51.53.93.85,1.94.85,3.56v4.65h0Z"/><path class="cls-1" d="M72.87,52.18c0,1.42.04,3.6.12,4.41.2,1.98.77,2.35,2.59,2.35s2.96,0,4.13-.2c1.46-.28,2.23-.93,2.84-1.86.53-.77.97-1.7,1.5-3.28l1.18.2c-.2,2.59-.57,4.65-1.01,6.92-3.2-.16-6.77-.2-11.95-.2-1.99,0-3.08,0-4.66.12l-.12-1.01c1.62-.65,1.91-1.54,2.03-3.32.12-1.33.12-3.12.12-4.53v-10.76c0-1.42,0-3.2-.12-4.53-.12-1.78-.41-2.67-2.03-3.32l.12-1.01c1.58.12,2.67.12,3.61.12,1.01,0,2.11,0,3.69-.12l.12,1.01c-1.62.65-1.91,1.54-2.03,3.32-.12,1.34-.12,3.12-.12,4.53v11.17h0Z"/><path class="cls-1" d="M87.23,45.14c.77-1.42,2.8-2.91,5.19-2.91,1.99,0,3.53.69,4.5,2.11.65.93,1.22,2.55,1.22,4.37v3.88c0,1.25,0,2.43.08,3.68.08,1.34.73,2.35,2.03,2.95l-.53,1.62c-2.8-.12-3.85-1.33-4.22-3.16h-.08c-1.09,2.47-2.88,3.48-4.7,3.48-2.6,0-4.22-1.7-4.22-3.84,0-1.9.97-3.04,2.55-4.05,1.5-.97,4.17-1.94,6.24-2.47v-1.98c0-1.25-.32-2.23-.85-2.91-.61-.81-1.66-1.13-2.55-1.13-1.38,0-2.51.57-3.89,1.66l-.77-1.3h0ZM95.29,52.22c-.85.28-1.58.61-2.35.93-2.76,1.17-3.57,2.39-3.57,3.48s.61,2.06,2.03,2.06c1.66,0,3.89-1.46,3.89-4.25v-2.23h0Z"/><path class="cls-1" d="M111.72,46.07l2.67-6.27c1.09-2.55,1.25-3.48,1.25-4.25,0-.85-.2-1.5-1.42-2.14l.16-.93c1.18.12,1.86.12,2.75.12s1.46,0,2.63-.12l.12.93c-.73.65-1.18,1.38-1.94,2.91-.61,1.21-1.09,2.43-1.58,3.52l-7.17,16.19c-.77,1.74-1.54,3-2.35,3.84-.69.69-1.78,1.3-3.08,1.3-1.09,0-1.91-.73-1.91-1.7,0-.89.61-1.66,1.54-1.66.77,0,1.05.2,1.78.2.85,0,1.46-.65,2.07-1.94l2.92-6.31-4.01-9.91c-.44-1.13-.97-2.63-1.62-4.09-.61-1.33-.89-1.7-1.86-2.35l.16-.93c1.18.08,2.39.12,3.28.12s1.62-.04,2.8-.12l.12.93c-.89.4-1.22.97-1.22,1.62,0,.93.16,1.7,1.38,4.74l2.51,6.31h0Z"/><path class="cls-1" d="M123.9,42.15c3.89,0,6.85,2.87,6.85,6.76,0,.32,0,.61-.08.93h-12.48c-.08.49-.08.93-.08,1.54,0,4.17,2.51,7,5.76,7,2.59,0,4.17-.89,5.83-3.28l.97.61c-1.22,3.04-3.61,5.54-7.21,5.54-5.07,0-8.43-4.29-8.43-9.23,0-5.63,3.85-9.87,8.87-9.87h0ZM127.18,48.22c-.04-2.75-1.91-4.25-4.17-4.25-2.47,0-4.05,1.86-4.54,4.25h8.71Z"/><path class="cls-1" d="M142.07,44.92c-1.91,0-3.48,2.23-3.48,6.11v1.9c0,1.25,0,2.67.08,3.93.12,1.66.49,2.39,2.27,2.91l-.12.93c-1.42-.12-2.72-.12-3.65-.12s-1.82,0-3.24.12l-.12-.93c1.5-.61,1.7-1.25,1.82-2.91.12-1.25.12-2.67.12-3.93v-1.01c0-1.25,0-2.55-.12-3.81-.12-1.66-.53-2.02-1.99-2.31v-.85c1.86-.89,2.88-1.54,4.29-2.83l.85.32c-.12,1.3-.2,2.91-.24,3.93l.04.04c1.09-2.67,2.96-4.21,4.86-4.21,1.66,0,2.59.93,2.59,2.02s-.61,1.42-1.46,1.42c-1.05,0-1.54-.73-2.51-.73h0Z"/><rect class="cls-1" x="44.79" y=".9" width="7.46" height="14.93"/><polygon class="cls-1" points="37.32 .9 30.16 .9 29.86 .9 22.69 .9 22.69 8.36 29.86 8.36 29.86 30.75 37.32 30.75 44.79 30.75 44.79 15.83 37.32 15.83 37.32 .9"/><polygon class="cls-1" points="22.39 45.68 14.93 45.68 14.93 30.75 14.93 .9 0 .9 0 30.75 0 60.61 14.93 60.61 22.39 60.61 29.86 60.61 37.32 60.61 44.79 60.61 44.79 45.68 37.32 45.68 29.86 45.68 29.86 30.75 22.39 30.75 22.39 45.68"/></g></svg>