<?xml version="1.0" encoding="UTF-8"?><svg id="Layer_2" xmlns="http://www.w3.org/2000/svg" viewBox="0 0 157.31 48.82"><defs><style>.cls-1{fill-rule:evenodd;}.cls-1,.cls-2{fill:#0a0b0d;}</style></defs><g id="Layer_1-2"><path class="cls-2" d="M141.64,42.86c-8.21,0-15.07-3.26-15.98-11.04-.03-.24.15-.46.39-.49l8.42-1.08c.26-.03.5.17.52.43.34,3.88,3.08,5.63,6.86,5.63,4,0,6.04-1.48,6.04-4.08,0-2.32-2.67-3.17-8.22-4.5-6.75-1.62-12.93-3.73-12.93-10.98,0-7.74,6.82-10.77,14.4-10.77s14.1,2.51,15.19,10.2c.03.24-.13.46-.37.5l-8.14,1.39c-.27.05-.51-.15-.54-.42-.38-3.59-2.64-5.19-6-5.19-2.88,0-5.27,1.06-5.27,3.52s2.53,3.24,7.24,4.29c6.25,1.41,14.05,3.1,14.05,11.47s-7.45,11.12-15.67,11.12Z"/><path class="cls-2" d="M120.16,9.33c2.81,2.81,3.16,6.61,3.16,11.19v21.58c0,.25-.2.45-.45.45h-9c-.25,0-.45-.2-.45-.45v-20.73c0-3.24-.28-4.93-1.83-6.4-1.26-1.2-2.46-1.41-4.57-1.41-3.02,0-6.53,2.04-6.53,9.29v19.25c0,.25-.2.45-.45.45h-8.93c-.25,0-.45-.2-.45-.45V7.32c0-.25.2-.45.45-.45h8.86c.25,0,.45.2.45.45v3.83c0,.22.32.28.42.09,1.98-3.76,5.73-5.22,9.98-5.22,4.5,0,7.1,1.06,9.34,3.31Z"/><path class="cls-2" d="M82.87,10.51c3.41,3.47,5.13,8.75,5.27,15.44,0,.25-.19.45-.43.46l-24.81.79c-.25,0-.45.22-.43.47.38,5.6,3.27,8.38,8.4,8.22,4.33-.14,6.51-2.1,7.19-5.53.05-.23.25-.39.48-.38l8.64.49c.28.02.48.28.41.55-1.92,7.6-7.64,11.55-16.5,11.83-5.48.17-9.89-1.45-12.93-4.24-3.47-3.2-5.31-7.79-5.49-13.7-.18-5.63,1.22-10.46,4.55-13.87,2.99-3.12,7.16-4.87,12.63-5.05,5.55-.18,9.96,1.44,13.01,4.52ZM70.07,12.81c-2.88.09-4.89,1-6.17,2.8-.86,1.18-1.36,2.64-1.56,4.34-.03.27.19.49.45.49l14.66-.46c.27,0,.47-.25.43-.51-.31-1.96-.93-3.59-2.13-4.79-1.38-1.36-3.15-1.94-5.68-1.86Z"/><path class="cls-1" d="M22.27.46c-.18-.27.15-.6.42-.41l11.26,7.88c7.1,4.97,10.37,13.84,8.12,22.2-.18.66-.37,1.24-.55,1.73-.11.3-.55.24-.58-.08-.19-2.72-2.15-5.84-3.57-8.09-.25-.4-.49-.78-.7-1.12-1.38-2.29-11.39-17.53-14.41-22.11ZM7.36,22.64L20.84.45c.16-.26-.13-.56-.39-.42-2.36,1.23-8.72,4.78-13.71,9.77-5.47,5.46-1.05,11.46.14,12.87.13.16.38.14.48-.04ZM20.51,48.36c.18.27-.15.6-.42.41l-11.26-7.88C1.72,35.91-1.55,27.04.7,18.67c.18-.66.37-1.24.55-1.73.11-.3.55-.24.58.08.19,2.72,2.15,5.84,3.57,8.09.25.4.49.78.7,1.12,1.38,2.29,11.39,17.53,14.41,22.11ZM21.94,48.36l13.48-22.19c.11-.17.35-.19.48-.04,1.19,1.41,5.61,7.41.14,12.87-4.99,4.99-11.35,8.54-13.71,9.77-.27.14-.55-.16-.39-.42Z"/></g></svg>