<?xml version="1.0" encoding="UTF-8"?><svg id="Layer_2" xmlns="http://www.w3.org/2000/svg" xmlns:xlink="http://www.w3.org/1999/xlink" viewBox="0 0 270.97 61.63"><defs><style>.cls-1{mask:url(#mask);}.cls-2{fill:#fff;}.cls-3{fill:#0a0b0d;}</style><mask id="mask" x="-.25" y="-.35" width="271.22" height="61.98" maskUnits="userSpaceOnUse"><g id="mask0_3340_1163"><path class="cls-2" d="M270.97-.35H-.25v61.98h271.22V-.35Z"/></g></mask></defs><g id="Layer_1-2"><g class="cls-1"><path class="cls-3" d="M79.79,19.92v8.52h10.35v3.5h-10.35v8.72h11.55v3.7h-16.09v-28.11h16.09v3.66h-11.55ZM106.79,40.43v3.94h-2.79c-2.34,0-4.11-.56-5.32-1.69-1.21-1.13-1.81-3.01-1.81-5.63v-10.75h-3.15v-3.86h3.15v-5.46h4.58v5.46h5.3v3.86h-5.3v10.83c0,1.25.23,2.11.7,2.59.46.48,1.28.72,2.45.72h2.19ZM123.31,22.07c2.55,0,4.59.82,6.13,2.47s2.31,4,2.31,7.05v12.78h-4.54v-12.3c0-1.96-.5-3.48-1.51-4.56-.54-.55-1.18-.97-1.9-1.25-.71-.28-1.48-.4-2.24-.36-.8-.04-1.61.1-2.36.4-.75.3-1.42.75-1.98,1.33-1.09,1.15-1.63,2.85-1.63,5.08v11.67h-4.54V14.91h4.54v12.34c.52-1.57,1.56-2.92,2.95-3.82,1.42-.92,3.09-1.39,4.78-1.35ZM157.44,32.35c0,.65-.05,1.31-.16,1.95h-16.88c.08,2.26.7,3.93,1.87,5.02,1.18,1.09,2.74,1.68,4.34,1.63,1.37.04,2.72-.36,3.84-1.15,1.02-.73,1.72-1.83,1.93-3.07h4.86c-.27,1.49-.9,2.9-1.83,4.1-.96,1.22-2.2,2.18-3.62,2.81-1.57.69-3.26,1.04-4.98,1.01-1.96.04-3.9-.43-5.63-1.35-1.63-.9-2.97-2.26-3.84-3.9-.97-1.85-1.45-3.92-1.39-6.01-.05-2.08.43-4.13,1.39-5.97.88-1.65,2.21-3,3.84-3.9,1.73-.93,3.67-1.39,5.63-1.35,1.96-.05,3.9.41,5.63,1.33,1.56.84,2.84,2.11,3.7,3.66.87,1.59,1.32,3.38,1.3,5.2h0ZM152.86,32.23c.09-1.25-.16-2.49-.74-3.6-.5-.93-1.28-1.68-2.23-2.15-.96-.47-2.02-.71-3.09-.7-1.64-.05-3.24.53-4.46,1.63-1.19,1.09-1.84,2.7-1.95,4.82h12.46ZM166.36,26.73c.72-1.41,1.83-2.59,3.19-3.4,1.45-.85,3.1-1.29,4.78-1.25v4.94h-1.35c-1.99,0-3.59.48-4.8,1.45-1.21.97-1.81,2.57-1.81,4.8v11.11h-4.54v-21.94h4.54v4.3ZM184.91,22.15c2.58,0,4.64.66,6.19,1.97,1.57,1.35,2.59,3.23,2.85,5.28h-4.3c-.14-1.12-.69-2.14-1.53-2.89-.93-.76-2.12-1.15-3.33-1.1-.95-.06-1.9.23-2.65.82-.31.28-.56.62-.72,1-.16.38-.24.8-.22,1.21-.01.31.04.62.16.91.12.29.29.55.52.76.49.45,1.06.79,1.69,1,.95.31,1.91.58,2.89.8,1.65.37,4,1.15,4,1.15,0,0,1.9,1.03,2.63,1.89.78,1,1.17,2.26,1.1,3.52.02.85-.15,1.7-.52,2.48-.36.77-.9,1.45-1.57,1.98-1.39,1.14-3.27,1.71-5.63,1.71-2.73,0-4.94-.64-6.63-1.91-.84-.64-1.54-1.44-2.06-2.36-.52-.92-.86-1.93-.98-2.98h4.42c.05.57.22,1.12.5,1.62.27.5.65.94,1.1,1.29,1.06.78,2.35,1.18,3.66,1.12.93.05,1.85-.25,2.57-.86.3-.27.55-.61.71-.98.16-.38.24-.78.23-1.19.02-.34-.04-.68-.16-.99-.12-.32-.31-.6-.56-.84-.52-.47-1.13-.83-1.79-1.06-.97-.32-1.95-.58-2.95-.78-1.32-.29-2.61-.66-3.88-1.12-.99-.37-1.87-1-2.55-1.81-.75-.97-1.12-2.18-1.06-3.4-.02-.86.15-1.72.51-2.51.36-.78.9-1.47,1.58-2.01,1.39-1.15,3.33-1.73,5.79-1.73h0ZM208.49,22.15c2.84,0,5.19.75,7.05,2.25,1.88,1.53,3.11,3.71,3.46,6.11h-4.82c-.21-1.29-.9-2.45-1.93-3.25-1.11-.81-2.47-1.23-3.84-1.17-.82-.02-1.63.14-2.39.45-.76.32-1.43.8-1.99,1.4-1.17,1.23-1.75,3.05-1.75,5.44s.58,4.21,1.75,5.46c.55.61,1.23,1.09,1.99,1.41.76.32,1.57.48,2.39.46,1.38.05,2.74-.37,3.85-1.19,1.03-.81,1.72-1.97,1.93-3.27h4.82c-.35,2.4-1.59,4.59-3.46,6.13-1.86,1.51-4.21,2.27-7.05,2.27-1.96.04-3.9-.43-5.63-1.35-1.63-.9-2.97-2.26-3.84-3.9-.97-1.85-1.45-3.92-1.4-6.01-.05-2.08.43-4.13,1.39-5.97.88-1.65,2.21-3,3.84-3.9,1.73-.93,3.67-1.39,5.63-1.35h0ZM232.18,22.15c1.81-.05,3.59.46,5.1,1.47,1.38.95,2.43,2.32,2.99,3.9v-5.1h4.54v21.94h-4.54v-5.1c-.56,1.58-1.6,2.95-2.99,3.9-1.5,1.01-3.29,1.52-5.1,1.47-1.8.03-3.57-.44-5.12-1.35-1.53-.93-2.75-2.29-3.52-3.9-.89-1.88-1.32-3.94-1.27-6.01-.05-2.06.39-4.11,1.27-5.97.77-1.61,2-2.97,3.52-3.9,1.55-.92,3.32-1.38,5.12-1.35h0ZM233.58,26.14c-.9-.04-1.79.11-2.63.44-.83.33-1.59.84-2.21,1.49-1.21,1.29-1.81,3.06-1.81,5.32s.6,4.03,1.81,5.32c.62.65,1.38,1.16,2.21,1.49.83.33,1.73.49,2.63.44,1.2.02,2.39-.29,3.42-.9,1.02-.6,1.84-1.48,2.39-2.53.61-1.18.91-2.5.88-3.82.03-1.32-.27-2.63-.88-3.8-.54-1.06-1.37-1.94-2.39-2.55-1.04-.61-2.22-.92-3.42-.9h0ZM262.52,22.08c2.55,0,4.59.82,6.13,2.47,1.54,1.65,2.31,4,2.31,7.05v12.78h-4.54v-12.3c0-1.96-.5-3.48-1.51-4.56-.54-.55-1.18-.97-1.9-1.25-.71-.28-1.48-.4-2.24-.36-.8-.04-1.61.1-2.36.4-.75.3-1.42.75-1.98,1.33-1.09,1.15-1.63,2.85-1.63,5.08v11.67h-4.54v-21.94h4.54v4.82c.52-1.57,1.56-2.92,2.95-3.82,1.42-.92,3.09-1.39,4.78-1.36h0Z"/><path class="cls-3" d="M12.83,29.29c0-.34.07-.69.2-1,.13-.32.33-.61.57-.85.24-.24.53-.44.85-.57.32-.13.66-.2,1.01-.2h4.36c.69.01,1.36.29,1.85.78.49.49.77,1.16.77,1.85v16.48c.49-.15,1.12-.3,1.81-.46.48-.11.91-.38,1.21-.77.31-.39.47-.86.47-1.36v-20.44c0-.7.28-1.36.77-1.85.49-.49,1.16-.77,1.85-.77h4.37c.69,0,1.36.28,1.85.77s.77,1.16.77,1.85v18.97s1.09-.44,2.16-.89c.4-.17.73-.45.97-.81.24-.36.36-.78.36-1.21v-22.62c0-.69.28-1.36.77-1.85.49-.49,1.16-.77,1.85-.77h4.37c.69,0,1.36.28,1.85.77.49.49.77,1.16.77,1.85v18.63c3.79-2.74,7.62-6.04,10.67-10.01.44-.58.73-1.25.85-1.97.12-.72.05-1.45-.18-2.14-1.41-4.06-3.65-7.77-6.58-10.91-2.93-3.14-6.48-5.63-10.43-7.32C39.03.8,34.77-.05,30.48,0c-4.29.05-8.53,1-12.43,2.78-3.91,1.78-7.4,4.36-10.25,7.57-2.85,3.21-5,6.98-6.32,11.06C.16,25.5-.28,29.82.17,34.09c.45,4.27,1.79,8.4,3.93,12.12.37.64.92,1.16,1.58,1.51.66.34,1.4.49,2.14.42.83-.07,1.85-.18,3.08-.32.53-.06,1.02-.31,1.38-.71.36-.4.55-.92.56-1.45v-16.36Z"/><path class="cls-3" d="M12.74,55.73c4.6,3.35,10.04,5.36,15.72,5.81,5.68.45,11.36-.68,16.44-3.26,5.07-2.58,9.33-6.52,12.31-11.37,2.97-4.85,4.55-10.44,4.55-16.13,0-.71-.03-1.41-.08-2.11-11.27,16.81-32.09,24.68-48.93,27.07"/></g></g></svg>