<?xml version="1.0" encoding="UTF-8"?><svg id="Layer_2" xmlns="http://www.w3.org/2000/svg" viewBox="0 0 303.95 67.18"><defs><style>.cls-1{fill-rule:evenodd;}.cls-1,.cls-2{fill:#0a0b0d;}</style></defs><g id="Layer_1-2"><path class="cls-1" d="M22.28,33.28l11.31-17.78,11.31,17.78-11.31,6.46-11.31-6.46Z"/><path class="cls-1" d="M22.28,36.32l11.31,6.46,11.31-6.46-11.31,15.35-11.31-15.35Z"/><path class="cls-1" d="M38.73,8.3c-1.76.82-3.47,1.74-5.12,2.74-1.67-1.02-3.39-1.94-5.17-2.75,1.66-1.12,3.37-2.16,5.13-3.1,1.77.95,3.49,1.99,5.16,3.12h0Z"/><path class="cls-1" d="M62.89,4.29c-6.21-6.21-17.53-5.47-29.32.89,1.77.95,3.49,1.99,5.16,3.12,4.56-2.11,8.91-3.24,12.6-3.24,3.29,0,6.06.9,7.97,2.82,4.06,4.06,3.58,11.93-.42,20.57,1.12,1.67,2.16,3.39,3.11,5.16,6.36-11.79,7.1-23.11.89-29.32h0Z"/><path class="cls-1" d="M38.73,8.3c-1.76.82-3.47,1.74-5.12,2.74,9.16,5.66,16.87,13.39,22.52,22.55,1.01-1.66,1.93-3.38,2.75-5.15-2.68-3.96-5.73-7.66-9.12-11.03-3.37-3.39-7.07-6.44-11.03-9.12h0Z"/><path class="cls-1" d="M62,33.61c-.95,1.76-1.99,3.48-3.11,5.14-.82-1.77-1.75-3.49-2.76-5.16,1.01-1.66,1.93-3.38,2.75-5.15,1.12,1.67,2.16,3.39,3.12,5.16h0Z"/><path class="cls-1" d="M58.88,38.75c-.82-1.77-1.75-3.49-2.76-5.16-2.8,4.58-6.14,8.81-9.95,12.59-3.78,3.81-8,7.15-12.57,9.96,1.65,1.01,3.37,1.93,5.12,2.74,3.97-2.67,7.66-5.73,11.03-9.12,3.39-3.37,6.44-7.06,9.12-11.02h0Z"/><path class="cls-1" d="M65.63,42.11c-.94-2.94-2.16-5.79-3.63-8.5-.95,1.76-1.99,3.48-3.11,5.14,4,8.64,4.48,16.5.42,20.56-4.06,4.06-11.93,3.58-20.57-.42-.36.24-.71.47-1.07.7-1.33.86-2.7,1.66-4.09,2.41,6.28,3.39,12.42,5.18,17.73,5.18,4.66,0,8.68-1.38,11.59-4.28,4.54-4.54,5.51-11.92,2.74-20.78h0Z"/><path class="cls-1" d="M38.73,58.88c-.36.24-.71.47-1.07.7-1.33.86-2.7,1.66-4.09,2.41-1.76-.95-3.47-1.98-5.13-3.1,1.77-.82,3.5-1.74,5.17-2.75,1.66,1.01,3.37,1.93,5.12,2.74Z"/><path class="cls-1" d="M23.55,60.79c-6.97,2.18-12.54,1.65-15.68-1.49-3.14-3.14-3.67-8.71-1.49-15.68.53-1.67,1.16-3.3,1.89-4.89-1.12-1.66-2.15-3.37-3.1-5.13-1.47,2.71-2.69,5.56-3.63,8.5-2.78,8.86-1.8,16.24,2.74,20.78,2.85,2.84,6.81,4.29,11.55,4.29,3.14-.05,6.25-.57,9.23-1.55,2.94-.94,5.79-2.16,8.51-3.63-1.76-.95-3.47-1.98-5.13-3.1-1.59.74-3.22,1.37-4.89,1.9h0Z"/><path class="cls-1" d="M28.44,58.89c1.77-.82,3.5-1.74,5.17-2.75-4.59-2.8-8.82-6.14-12.61-9.96-3.81-3.79-7.16-8.02-9.96-12.61-1.02,1.67-1.94,3.4-2.76,5.17,2.68,3.96,5.74,7.65,9.13,11.02,3.37,3.39,7.06,6.45,11.03,9.13h0Z"/><path class="cls-1" d="M11.04,33.57c-1.02,1.67-1.94,3.4-2.76,5.17-1.12-1.66-2.15-3.37-3.1-5.13.95-1.77,1.99-3.5,3.12-5.17.82,1.76,1.73,3.47,2.74,5.12h0Z"/><path class="cls-1" d="M7.87,7.87c3.14-3.14,8.71-3.67,15.68-1.48,1.67.53,3.3,1.16,4.89,1.89,1.66-1.12,3.37-2.15,5.13-3.1-2.71-1.48-5.56-2.69-8.51-3.63C16.21-1.22,8.83-.25,4.29,4.29,1.38,7.19,0,11.22,0,15.88,0,21.19,1.8,27.33,5.18,33.61c.95-1.77,1.99-3.5,3.12-5.17-4-8.64-4.49-16.51-.42-20.57Z"/><path class="cls-1" d="M28.44,8.28c-7.93,5.39-14.76,12.23-20.14,20.16.82,1.76,1.73,3.47,2.74,5.12,5.67-9.17,13.39-16.88,22.57-22.53-1.67-1.02-3.39-1.94-5.17-2.75h0Z"/><path class="cls-2" d="M296.23,47.3v2.81c-.49.29-1.05.44-1.61.43-2.31.06-4.36-1.48-4.95-3.73-3.45,3.78-9.03,4.73-13.53,2.29-4.5-2.44-6.77-7.63-5.51-12.6,1.27-4.97,5.74-8.44,10.86-8.42,1.46,0,2.9.28,4.25.84,1.35.56,2.57,1.37,3.61,2.4v-2.81h3.34v15.98c0,2,1.02,2.81,2.21,2.81h1.34ZM289.34,39.31c0-4.35-3.52-7.88-7.86-7.88s-7.86,3.53-7.86,7.88,3.52,7.88,7.86,7.88c4.34,0,7.86-3.53,7.86-7.88h0ZM300.44,17.55h3.51v32.99h-3.51V17.55h0ZM265.37,39.16c0,4.59-2.72,8.73-6.89,10.5-4.18,1.77-8.99.82-12.21-2.4v2.84h-3.35V16.85h3.35v14.22c3.22-3.22,8.04-4.17,12.21-2.4,4.17,1.77,6.89,5.91,6.89,10.5h0ZM262.02,39.16c0-4.41-3.53-7.99-7.88-7.99s-7.88,3.58-7.88,7.99,3.53,7.99,7.88,7.99c1.04,0,2.07-.2,3.02-.6.96-.4,1.83-.99,2.55-1.73,1.48-1.51,2.31-3.54,2.3-5.65h0ZM214.16,39.31c0-6.2,5.03-11.23,11.22-11.23s11.22,5.03,11.22,11.23-5.03,11.23-11.22,11.23c-1.48,0-2.94-.29-4.3-.85-1.36-.56-2.6-1.39-3.64-2.43-1.04-1.04-1.87-2.28-2.43-3.65-.56-1.36-.85-2.82-.85-4.3h0ZM233.26,39.31c0-4.35-3.53-7.88-7.88-7.88s-7.88,3.53-7.88,7.88,3.53,7.88,7.88,7.88c4.35,0,7.87-3.53,7.88-7.88ZM197.32,32.6v.98c.06,8.47-6.05,15.67-14.26,16.81-8.21,1.14-15.98-4.13-18.14-12.3-2.16-8.18,1.96-16.72,9.62-19.96,7.66-3.23,16.48-.15,20.6,7.2l-2.92,1.68c-3.11-5.62-9.73-8.14-15.68-5.97-5.95,2.17-9.51,8.4-8.44,14.76,1.07,6.36,6.46,11.02,12.78,11.03,6.32.02,11.73-4.61,12.83-10.97h-12.81v-3.26h16.42ZM204.33,17.55h3.51v32.99h-3.51V17.55h0ZM158.74,17.55v32.99h-7.07v-13.31h-13.17v13.31h-7.12V17.55h7.12v13.25h13.17v-13.25h7.07ZM128.57,23.98h-8.05v26.56h-6.99v-26.56h-8.11v-6.43h23.15v6.43h0ZM90.86,23.93v6.93h10.66v6.38h-10.66v6.93h12.46v6.38h-19.64V17.55h19.64v6.38h-12.46Z"/></g></svg>