<?xml version="1.0" encoding="UTF-8"?><svg id="Layer_2" xmlns="http://www.w3.org/2000/svg" viewBox="0 0 293.94 59.29"><g id="Layer_1-2"><path d="M62.35,55.09h-.38v-2.3c0-1.06-.86-1.91-1.91-1.91V16.83h2.1l2.49-8.42h-11.86V0H11.09v8.42H0l2.49,8.42h2.1v34.05c-1.06,0-1.91.86-1.91,1.91v2.3h-.38c-1.06,0-1.91.86-1.91,1.91v2.3h21.42v-2.3c0-1.06-.86-1.91-1.91-1.91h-.38v-2.3c0-1.06-.86-1.91-1.91-1.91h-.38v-18.74h.06c.68-7.51,6.99-13.39,14.67-13.39s13.99,5.88,14.67,13.39h.06v18.78c-.87.18-1.53.95-1.53,1.87v2.3h-.38c-1.06,0-1.91.86-1.91,1.91v2.3h21.42v-2.3c0-1.06-.86-1.91-1.91-1.91Z"/><path d="M292.84,20.41c-.43-.03-.82-.05-1.17-.05-1.53,0-2.9.42-4.09,1.27-1.18.84-2.02,2.03-2.51,3.57h-.28v-4.46h-6.12v26.76h6.31v-15.73c0-1.14.26-2.14.78-3.01.52-.87,1.24-1.55,2.14-2.04.92-.5,1.95-.75,3.1-.75.53,0,1.09.04,1.66.12.58.07,1,.15,1.27.24v-5.8c-.29-.06-.66-.1-1.1-.12Z"/><path d="M269.68,23.64c-1.13-1.1-2.43-1.92-3.9-2.44-1.46-.53-3.02-.8-4.67-.8-2.56,0-4.78.59-6.67,1.76-1.89,1.16-3.37,2.79-4.42,4.88-1.05,2.08-1.57,4.49-1.57,7.25s.52,5.23,1.57,7.3c1.04,2.06,2.54,3.65,4.48,4.77,1.95,1.12,4.27,1.67,6.95,1.67,2.08,0,3.93-.31,5.54-.94,1.61-.64,2.94-1.53,3.97-2.68,1.04-1.16,1.75-2.52,2.13-4.08l-5.89-.66c-.28.75-.69,1.39-1.24,1.9-.55.51-1.19.9-1.93,1.17-.74.26-1.57.38-2.49.38-1.37,0-2.57-.29-3.59-.87-1.02-.59-1.82-1.44-2.39-2.54-.55-1.08-.83-2.36-.85-3.85h18.64v-1.93c0-2.35-.33-4.37-.98-6.06-.65-1.71-1.54-3.11-2.68-4.22ZM254.71,31.6c.06-1.05.33-2.02.81-2.91.55-1.01,1.31-1.82,2.28-2.44.98-.63,2.11-.94,3.4-.94,1.21,0,2.26.27,3.17.82.92.55,1.63,1.3,2.14,2.25.51.94.77,2.02.78,3.22h-12.58Z"/><path d="M243.26,42.47c-.33.06-.69.09-1.08.09-.52,0-1-.08-1.43-.24-.43-.16-.78-.46-1.04-.91-.26-.45-.38-1.1-.38-1.95v-13.83h5.28v-4.88h-5.28v-6.41h-6.31v6.41h-3.8v4.88h3.8v14.88c-.01,1.67.35,3.07,1.08,4.18.74,1.12,1.75,1.94,3.01,2.47,1.27.52,2.69.76,4.27.71.89-.02,1.65-.1,2.26-.24.63-.14,1.11-.27,1.45-.38l-1.06-4.93c-.17.05-.43.1-.77.16Z"/><path d="M218.52,32.24l-4.56-.98c-1.36-.31-2.33-.71-2.93-1.2-.58-.49-.86-1.12-.85-1.9-.01-.91.42-1.64,1.31-2.21.89-.57,2-.85,3.31-.85.98,0,1.8.16,2.47.47.67.31,1.21.73,1.6,1.24.41.51.69,1.06.85,1.64l5.75-.63c-.43-2.28-1.55-4.08-3.36-5.42-1.8-1.34-4.27-2-7.4-2-2.14,0-4.02.34-5.66,1.01-1.63.66-2.9,1.6-3.82,2.82-.91,1.21-1.35,2.64-1.34,4.29-.01,1.95.6,3.57,1.83,4.84,1.23,1.27,3.13,2.17,5.7,2.7l4.56.96c1.23.27,2.14.65,2.72,1.15.59.5.89,1.13.89,1.9,0,.91-.46,1.67-1.38,2.28-.91.62-2.11.92-3.61.92s-2.63-.31-3.54-.92c-.91-.62-1.5-1.53-1.78-2.74l-6.15.59c.38,2.46,1.57,4.38,3.57,5.77,2,1.37,4.63,2.06,7.91,2.06,2.23,0,4.2-.36,5.92-1.08,1.72-.72,3.06-1.72,4.02-3,.98-1.29,1.47-2.78,1.48-4.46-.01-1.92-.64-3.47-1.88-4.65-1.23-1.18-3.11-2.05-5.64-2.6Z"/><path d="M194.46,22.35c-1.06-.7-2.22-1.2-3.5-1.5-1.28-.3-2.56-.45-3.85-.45-1.87,0-3.58.28-5.12.84-1.54.55-2.85,1.37-3.92,2.47-1.07,1.09-1.84,2.45-2.3,4.08l5.89.84c.31-.92.92-1.71,1.81-2.39.91-.67,2.13-1.01,3.68-1.01,1.46,0,2.58.36,3.36,1.08.78.72,1.17,1.74,1.17,3.05v.1c0,.6-.23,1.05-.68,1.34-.44.28-1.15.49-2.13.63-.98.13-2.25.27-3.82.44-1.3.14-2.56.37-3.78.68-1.21.3-2.29.75-3.26,1.34-.96.59-1.72,1.38-2.28,2.37-.56.99-.84,2.24-.84,3.75,0,1.75.39,3.23,1.17,4.43.79,1.2,1.86,2.1,3.21,2.72,1.36.6,2.89.91,4.58.91,1.39,0,2.61-.19,3.64-.57,1.05-.39,1.91-.91,2.6-1.55.7-.65,1.24-1.35,1.62-2.09h.21v3.68h6.06v-17.91c0-1.78-.32-3.26-.98-4.44-.64-1.18-1.49-2.12-2.54-2.8ZM191.69,37.91c0,.99-.26,1.9-.77,2.74-.5.84-1.21,1.51-2.14,2.02-.93.5-2.03.75-3.29.75s-2.39-.3-3.24-.89c-.85-.59-1.27-1.47-1.27-2.63,0-.81.21-1.47.64-1.99.43-.52,1.02-.93,1.76-1.22.74-.29,1.59-.5,2.53-.63.42-.06.91-.13,1.48-.21.57-.08,1.14-.17,1.72-.28.58-.1,1.1-.23,1.57-.37.48-.14.81-.29,1.01-.45v3.15Z"/><path d="M156.16,26.53c.98-.7,2.11-1.05,3.4-1.05,1.52,0,2.74.44,3.64,1.31.92.86,1.5,1.93,1.74,3.22h6.03c-.14-1.93-.71-3.61-1.71-5.05-1-1.45-2.34-2.57-4.02-3.36-1.67-.8-3.6-1.2-5.77-1.2-2.61,0-4.88.59-6.79,1.76-1.91,1.16-3.38,2.79-4.43,4.88-1.04,2.08-1.57,4.48-1.57,7.2s.51,5.1,1.53,7.18c1.03,2.07,2.5,3.69,4.41,4.86,1.92,1.17,4.21,1.76,6.88,1.76,2.24,0,4.19-.41,5.85-1.22,1.66-.82,2.97-1.96,3.94-3.41.96-1.46,1.52-3.14,1.67-5.03h-6.03c-.19.96-.53,1.78-1.03,2.46-.5.67-1.12,1.19-1.86,1.55-.73.35-1.56.52-2.49.52-1.31,0-2.46-.35-3.43-1.05-.96-.71-1.71-1.71-2.25-3.01-.53-1.31-.8-2.88-.8-4.7s.27-3.35.8-4.63c.55-1.29,1.31-2.28,2.28-2.96Z"/><path d="M142.48,20.36c-1.53,0-2.9.42-4.09,1.27-1.18.84-2.02,2.03-2.51,3.57h-.28v-4.46h-6.12v26.76h6.31v-15.73c0-1.14.26-2.14.78-3.01.52-.87,1.24-1.55,2.14-2.04.92-.5,1.95-.75,3.1-.75.53,0,1.09.04,1.66.12.58.07,1,.15,1.27.24v-5.8c-.29-.06-.66-.1-1.1-.12-.43-.03-.82-.05-1.17-.05Z"/><path d="M119.62,22.35c-1.06-.7-2.22-1.2-3.5-1.5-1.28-.3-2.56-.45-3.85-.45-1.87,0-3.58.28-5.12.84-1.54.55-2.85,1.37-3.92,2.47-1.07,1.09-1.84,2.45-2.3,4.08l5.89.84c.31-.92.92-1.71,1.81-2.39.91-.67,2.13-1.01,3.68-1.01,1.46,0,2.58.36,3.36,1.08.78.72,1.17,1.74,1.17,3.05v.1c0,.6-.23,1.05-.68,1.34-.44.28-1.15.49-2.13.63-.98.13-2.25.27-3.82.44-1.3.14-2.56.37-3.78.68-1.21.3-2.29.75-3.26,1.34-.96.59-1.72,1.38-2.28,2.37-.56.99-.84,2.24-.84,3.75,0,1.75.39,3.23,1.17,4.43.79,1.2,1.86,2.1,3.21,2.72,1.36.6,2.89.91,4.58.91,1.39,0,2.61-.19,3.64-.57,1.04-.39,1.91-.91,2.6-1.55.7-.65,1.24-1.35,1.62-2.09h.21v3.68h6.06v-17.91c0-1.78-.33-3.26-.98-4.44-.64-1.18-1.49-2.12-2.54-2.8ZM116.85,37.91c0,.99-.26,1.9-.77,2.74-.5.84-1.21,1.51-2.14,2.02-.93.5-2.03.75-3.29.75s-2.39-.3-3.24-.89c-.85-.59-1.27-1.47-1.27-2.63,0-.81.21-1.47.64-1.99.43-.52,1.02-.93,1.76-1.22.74-.29,1.59-.5,2.53-.63.42-.06.91-.13,1.48-.21.57-.08,1.14-.17,1.72-.28.58-.1,1.1-.23,1.57-.37.48-.14.81-.29,1.01-.45v3.15Z"/><path d="M93.78,10.15c-1.54,0-2.95.3-4.22.89-1.27.59-2.28,1.49-3.03,2.68-.74,1.2-1.12,2.69-1.12,4.49v2.53h-3.95v4.88h3.95v21.88h6.32v-21.88h5.54v-4.88h-5.54v-2.11c0-1.05.24-1.85.71-2.4.49-.57,1.32-.85,2.49-.85.5,0,.95.05,1.36.14.41.08.74.16,1.01.24l1.25-4.88c-.41-.14-1.03-.3-1.88-.47-.85-.17-1.82-.26-2.91-.26Z"/></g></svg>