<?xml version="1.0" encoding="UTF-8"?><svg id="Layer_2" xmlns="http://www.w3.org/2000/svg" viewBox="0 0 73.4 73.4"><defs><style>.cls-1{fill:#0a0b0d;fill-rule:evenodd;}</style></defs><g id="Layer_1-2"><path class="cls-1" d="M36.88,0C16.52-.18.18,16.33,0,36.52c0,20.37,16.52,36.88,36.7,36.88s36.52-16.33,36.7-36.33C73.4,16.52,57.07.19,36.88,0ZM54.32,16.52c-.73.55-1.65.37-2.39-.37-.55-.55-.92-1.1-1.47-1.65-1.1-1.47-2.75-1.65-4.04-.37-.92.92-1.84,2.2-2.39,3.49-1.28,3.85-2.2,7.89-3.49,11.93l10.09,1.47-.73,2.75-9.73-1.47-1.1,5.87,10.46,1.47-.73,2.75-10.28-1.47c-.73,2.39-1.1,4.95-2.02,7.16-.92,2.57-1.83,5.14-2.94,7.52-1.47,3.12-4.04,5.32-7.52,5.87-2.02.37-4.22.18-5.87-1.1-.55-.37-1.1-1.1-1.1-1.65,0-.73.37-1.65.92-2.02.37-.18,1.28,0,1.84.18.55.55,1.1,1.28,1.47,2.02,1.1,1.47,2.57,1.65,4.04.55,1.65-1.47,2.57-3.49,3.12-5.51,1.1-4.4,2.2-8.62,3.12-13.03v-.73l-9.73-1.47.37-2.75,10.09,1.47,1.28-5.69-10.46-1.65.37-2.94,10.83,1.47c.37-1.1.55-2.02.92-2.94.92-3.3,1.84-6.61,4.04-9.54,2.2-2.94,4.77-4.77,8.62-4.59,1.65,0,3.3.55,4.4,1.84.18.18.55.55.55.92,0,.73,0,1.65-.55,2.2Z"/></g></svg>