<?xml version="1.0" encoding="UTF-8"?><svg id="Layer_2" xmlns="http://www.w3.org/2000/svg" viewBox="0 0 235.87 60.75"><defs><style>.cls-1{fill:#0a0b0d;}</style></defs><g id="Layer_1-2"><path class="cls-1" d="M225.77,59.83c-1.99,0-3.59-.6-4.78-1.79-1.15-1.2-1.73-2.79-1.73-4.78v-20.39h-9.03v-5.78h9.03v-10.83h6.84v10.83h9.76v5.78h-9.76v19.19c0,1.33.62,1.99,1.86,1.99h6.84v5.78h-9.03Z"/><path class="cls-1" d="M176.19,59.82V27.08h6.71v4.91h1.06c.62-1.33,1.73-2.57,3.32-3.72,1.59-1.15,3.96-1.73,7.11-1.73,2.48,0,4.67.55,6.57,1.66,1.95,1.11,3.48,2.68,4.58,4.72,1.11,1.99,1.66,4.41,1.66,7.24v19.66h-6.84v-19.13c0-2.83-.71-4.91-2.12-6.24-1.42-1.37-3.36-2.06-5.84-2.06-2.83,0-5.11.93-6.84,2.79-1.68,1.86-2.52,4.56-2.52,8.1v16.54h-6.84Z"/><path class="cls-1" d="M155.07,60.75c-3.32,0-6.22-.69-8.7-2.06-2.48-1.42-4.43-3.39-5.84-5.91-1.37-2.57-2.06-5.53-2.06-8.9v-.8c0-3.41.69-6.38,2.06-8.9,1.37-2.57,3.28-4.54,5.71-5.91,2.48-1.42,5.34-2.13,8.57-2.13s5.89.71,8.24,2.13c2.39,1.37,4.25,3.3,5.58,5.78,1.33,2.48,1.99,5.38,1.99,8.7v2.59h-25.17c.09,2.88,1.04,5.18,2.86,6.91,1.86,1.68,4.16,2.52,6.91,2.52,2.57,0,4.49-.58,5.78-1.73,1.33-1.15,2.35-2.48,3.05-3.98l5.65,2.92c-.62,1.24-1.53,2.55-2.72,3.92-1.15,1.37-2.68,2.52-4.58,3.45-1.9.93-4.34,1.39-7.31,1.39ZM145.51,40.1h18.13c-.18-2.48-1.06-4.41-2.66-5.78-1.59-1.42-3.68-2.13-6.24-2.13s-4.67.71-6.31,2.13c-1.59,1.37-2.57,3.3-2.92,5.78Z"/><path class="cls-1" d="M125.73,59.82V13.34h6.84v46.49h-6.84Z"/><path class="cls-1" d="M100.22,60.75c-2.35,0-4.45-.4-6.31-1.2-1.81-.8-3.28-1.97-4.38-3.52-1.06-1.55-1.59-3.43-1.59-5.64s.53-4.12,1.59-5.58c1.11-1.51,2.59-2.63,4.45-3.39,1.9-.75,4.05-1.13,6.44-1.13h9.96v-2.13c0-1.9-.58-3.43-1.73-4.58-1.15-1.15-2.92-1.73-5.31-1.73s-4.14.55-5.38,1.66c-1.24,1.11-2.06,2.55-2.46,4.32l-6.38-2.06c.53-1.77,1.37-3.36,2.52-4.78,1.2-1.46,2.77-2.63,4.72-3.52,1.95-.89,4.29-1.33,7.04-1.33,4.25,0,7.59,1.08,10.03,3.25,2.44,2.17,3.65,5.25,3.65,9.23v13.48c0,1.33.62,1.99,1.86,1.99h2.79v5.71h-5.11c-1.55,0-2.81-.4-3.79-1.2-.97-.8-1.46-1.88-1.46-3.25v-.2h-1c-.35.66-.89,1.44-1.59,2.32-.71.89-1.75,1.66-3.12,2.32-1.37.62-3.19.93-5.45.93ZM101.21,55.11c2.75,0,4.96-.77,6.64-2.32,1.68-1.59,2.52-3.76,2.52-6.51v-.66h-9.56c-1.81,0-3.28.4-4.38,1.2-1.11.75-1.66,1.88-1.66,3.39s.58,2.7,1.73,3.59c1.15.89,2.72,1.33,4.71,1.33Z"/><path class="cls-1" d="M74.65,59.83c-1.99,0-3.59-.6-4.78-1.79-1.15-1.2-1.73-2.79-1.73-4.78v-20.39h-9.03v-5.78h9.03v-10.83h6.84v10.83h9.76v5.78h-9.76v19.19c0,1.33.62,1.99,1.86,1.99h6.84v5.78h-9.03Z"/><path class="cls-1" d="M1.73,25.17c1.2,1.2,2.8,1.79,4.8,1.79h20.44l-2.3-6.58H8.39c-1.24,0-1.87-.66-1.87-1.99V2.22L0,0v20.39c0,1.99.58,3.59,1.73,4.78Z"/><path class="cls-1" d="M1.73,58.05c1.2,1.2,2.8,1.79,4.8,1.79h20.44l-2.3-6.58H8.39c-1.24,0-1.87-.66-1.87-1.99v-16.18L0,32.88v20.39c0,1.99.58,3.59,1.73,4.78Z"/></g></svg>