<?xml version="1.0" encoding="UTF-8"?><svg id="Layer_2" xmlns="http://www.w3.org/2000/svg" viewBox="0 0 413.59 60.67"><g id="Layer_1-2"><path d="M407.88,49.65V11.09h5.71v38.56h-5.71Z"/><path d="M389.35,50.42c-2.74,0-5.17-.55-7.32-1.65-2.11-1.14-3.77-2.75-4.99-4.85-1.22-2.09-1.83-4.57-1.83-7.44v-.83c0-2.86.61-5.33,1.83-7.38,1.22-2.09,2.88-3.71,4.99-4.85,2.14-1.14,4.58-1.71,7.32-1.71s5.17.57,7.32,1.71c2.14,1.14,3.82,2.75,5.04,4.85,1.22,2.06,1.83,4.52,1.83,7.38v.83c0,2.86-.61,5.34-1.83,7.44-1.22,2.09-2.9,3.71-5.04,4.85-2.14,1.1-4.58,1.65-7.32,1.65ZM389.35,45.35c2.51,0,4.55-.79,6.1-2.37,1.59-1.62,2.38-3.84,2.38-6.67v-.5c0-2.83-.78-5.03-2.33-6.61-1.55-1.62-3.6-2.42-6.15-2.42s-4.51.81-6.1,2.42c-1.55,1.58-2.33,3.78-2.33,6.61v.5c0,2.83.78,5.05,2.33,6.67,1.59,1.58,3.62,2.37,6.1,2.37Z"/><path d="M359.2,50.42c-2.62,0-5.01-.55-7.15-1.65-2.11-1.1-3.79-2.7-5.05-4.79-1.22-2.09-1.83-4.61-1.83-7.55v-.72c0-2.94.61-5.44,1.83-7.49,1.26-2.09,2.94-3.69,5.05-4.79,2.14-1.14,4.53-1.71,7.15-1.71s4.86.48,6.71,1.43c1.85.95,3.33,2.22,4.43,3.8,1.15,1.58,1.89,3.32,2.22,5.23l-5.54,1.16c-.18-1.21-.57-2.31-1.16-3.31-.59-.99-1.42-1.78-2.49-2.37-1.07-.59-2.42-.88-4.05-.88s-3.03.37-4.32,1.1c-1.26.7-2.25,1.73-2.99,3.09-.74,1.32-1.11,2.94-1.11,4.85v.5c0,1.91.37,3.54,1.11,4.9.74,1.36,1.74,2.39,2.99,3.09,1.29.7,2.74,1.05,4.32,1.05,2.4,0,4.23-.61,5.49-1.82,1.26-1.25,2.05-2.83,2.38-4.74l5.54,1.27c-.44,1.87-1.24,3.6-2.38,5.18-1.11,1.58-2.59,2.85-4.43,3.8-1.85.92-4.08,1.38-6.71,1.38Z"/><path d="M327.97,50.42c-2.74,0-5.17-.55-7.32-1.65-2.11-1.14-3.77-2.75-4.99-4.85-1.22-2.09-1.83-4.57-1.83-7.44v-.83c0-2.86.61-5.33,1.83-7.38,1.22-2.09,2.88-3.71,4.99-4.85,2.14-1.14,4.58-1.71,7.32-1.71s5.17.57,7.32,1.71c2.14,1.14,3.83,2.75,5.05,4.85,1.22,2.06,1.83,4.52,1.83,7.38v.83c0,2.86-.61,5.34-1.83,7.44-1.22,2.09-2.9,3.71-5.05,4.85-2.14,1.1-4.58,1.65-7.32,1.65ZM327.97,45.35c2.51,0,4.55-.79,6.1-2.37,1.59-1.62,2.38-3.84,2.38-6.67v-.5c0-2.83-.78-5.03-2.33-6.61-1.55-1.62-3.6-2.42-6.15-2.42s-4.51.81-6.1,2.42c-1.55,1.58-2.33,3.78-2.33,6.61v.5c0,2.83.78,5.05,2.33,6.67,1.59,1.58,3.62,2.37,6.1,2.37Z"/><path d="M303.78,49.65c-1.66,0-2.99-.5-3.99-1.49-.96-.99-1.44-2.31-1.44-3.97v-16.91h-7.54v-4.79h7.54v-8.98h5.71v8.98h8.15v4.79h-8.15v15.92c0,1.1.52,1.65,1.55,1.65h5.71v4.79h-7.54Z"/><path d="M276.02,50.42c-2.73,0-5.17-.55-7.32-1.65-2.11-1.14-3.77-2.75-4.99-4.85-1.22-2.09-1.83-4.57-1.83-7.44v-.83c0-2.86.61-5.33,1.83-7.38,1.22-2.09,2.88-3.71,4.99-4.85,2.14-1.14,4.58-1.71,7.32-1.71s5.17.57,7.32,1.71c2.14,1.14,3.83,2.75,5.05,4.85,1.22,2.06,1.83,4.52,1.83,7.38v.83c0,2.86-.61,5.34-1.83,7.44-1.22,2.09-2.9,3.71-5.05,4.85-2.14,1.1-4.58,1.65-7.32,1.65ZM276.02,45.35c2.51,0,4.55-.79,6.1-2.37,1.59-1.62,2.38-3.84,2.38-6.67v-.5c0-2.83-.78-5.03-2.33-6.61-1.55-1.62-3.6-2.42-6.15-2.42s-4.51.81-6.1,2.42c-1.55,1.58-2.33,3.78-2.33,6.61v.5c0,2.83.78,5.05,2.33,6.67,1.59,1.58,3.62,2.37,6.1,2.37Z"/><path d="M245.52,49.65v-27.16h5.6v3.2h.89c.44-1.14,1.15-1.96,2.11-2.48,1-.55,2.22-.83,3.66-.83h3.27v5.12h-3.49c-1.85,0-3.36.51-4.55,1.54-1.18.99-1.77,2.53-1.77,4.63v15.98h-5.71Z"/><path d="M212.78,60.67V22.49h5.6v3.91h.89c.7-1.21,1.76-2.3,3.16-3.25,1.44-.95,3.49-1.43,6.15-1.43,2.29,0,4.38.55,6.26,1.65,1.92,1.1,3.46,2.7,4.6,4.79,1.18,2.06,1.77,4.55,1.77,7.49v.83c0,2.94-.57,5.45-1.72,7.55-1.15,2.06-2.68,3.64-4.6,4.74-1.92,1.1-4.03,1.65-6.32,1.65-1.77,0-3.27-.22-4.49-.66-1.22-.44-2.2-.99-2.94-1.65-.74-.7-1.33-1.41-1.77-2.15h-.89v14.71h-5.71ZM226.91,45.46c2.51,0,4.56-.79,6.15-2.37,1.59-1.58,2.38-3.84,2.38-6.78v-.5c0-2.9-.81-5.14-2.44-6.72-1.59-1.58-3.62-2.37-6.1-2.37s-4.47.79-6.1,2.37c-1.59,1.58-2.38,3.82-2.38,6.72v.5c0,2.94.79,5.2,2.38,6.78,1.63,1.58,3.66,2.37,6.1,2.37Z"/><path d="M188.5,49.65c-1.66,0-2.99-.5-3.99-1.49-.96-.99-1.44-2.31-1.44-3.97v-16.91h-7.54v-4.79h7.54v-8.98h5.71v8.98h8.15v4.79h-8.15v15.92c0,1.1.52,1.65,1.55,1.65h5.71v4.79h-7.54Z"/><path d="M147.11,49.65v-27.16h5.6v4.08h.89c.52-1.1,1.44-2.13,2.77-3.09s3.31-1.43,5.93-1.43c2.07,0,3.9.46,5.49,1.38,1.63.92,2.9,2.22,3.82,3.91.92,1.65,1.39,3.65,1.39,6v16.31h-5.71v-15.87c0-2.35-.59-4.08-1.77-5.18-1.18-1.14-2.81-1.71-4.88-1.71-2.37,0-4.27.77-5.71,2.31-1.4,1.54-2.11,3.78-2.11,6.72v13.72h-5.71Z"/><path d="M129.48,50.42c-2.77,0-5.19-.57-7.26-1.71-2.07-1.18-3.7-2.81-4.88-4.9-1.15-2.13-1.72-4.59-1.72-7.38v-.66c0-2.83.57-5.29,1.72-7.38,1.15-2.13,2.73-3.76,4.77-4.9,2.07-1.18,4.45-1.76,7.15-1.76s4.92.59,6.87,1.76c2,1.14,3.55,2.74,4.66,4.79,1.11,2.06,1.66,4.46,1.66,7.22v2.15h-21.01c.07,2.39.87,4.3,2.38,5.73,1.55,1.4,3.47,2.09,5.77,2.09,2.14,0,3.75-.48,4.82-1.43,1.11-.95,1.96-2.06,2.55-3.31l4.71,2.42c-.52,1.03-1.28,2.11-2.27,3.25-.96,1.14-2.24,2.09-3.83,2.86-1.59.77-3.62,1.16-6.1,1.16ZM121.5,33.29h15.14c-.15-2.06-.89-3.65-2.22-4.79-1.33-1.18-3.07-1.76-5.21-1.76s-3.9.59-5.27,1.76c-1.33,1.14-2.14,2.74-2.44,4.79Z"/><path d="M104.98,49.65V11.09h5.71v38.56h-5.71Z"/><path d="M83.69,50.42c-1.96,0-3.71-.33-5.27-.99-1.52-.66-2.74-1.63-3.66-2.92-.89-1.29-1.33-2.85-1.33-4.68s.44-3.42,1.33-4.63c.92-1.25,2.16-2.19,3.71-2.81,1.59-.62,3.38-.94,5.38-.94h8.32v-1.76c0-1.58-.48-2.85-1.44-3.8-.96-.95-2.44-1.43-4.43-1.43s-3.46.46-4.49,1.38c-1.03.92-1.72,2.11-2.05,3.58l-5.32-1.71c.44-1.47,1.15-2.79,2.11-3.97,1-1.21,2.31-2.19,3.94-2.92,1.63-.73,3.59-1.1,5.88-1.1,3.55,0,6.34.9,8.37,2.7,2.03,1.8,3.05,4.35,3.05,7.66v11.18c0,1.1.52,1.65,1.55,1.65h2.33v4.74h-4.27c-1.29,0-2.35-.33-3.16-.99-.81-.66-1.22-1.56-1.22-2.7v-.17h-.83c-.3.55-.74,1.19-1.33,1.93-.59.73-1.46,1.38-2.61,1.93-1.15.51-2.66.77-4.55.77ZM84.52,45.74c2.29,0,4.14-.64,5.54-1.93,1.4-1.32,2.11-3.12,2.11-5.4v-.55h-7.98c-1.51,0-2.73.33-3.66.99-.92.62-1.39,1.56-1.39,2.81s.48,2.24,1.44,2.97c.96.73,2.27,1.1,3.94,1.1Z"/><path d="M62.34,49.65c-1.66,0-2.99-.5-3.99-1.49-.96-.99-1.44-2.31-1.44-3.97v-16.91h-7.54v-4.79h7.54v-8.98h5.71v8.98h8.15v4.79h-8.15v15.92c0,1.1.52,1.65,1.55,1.65h5.71v4.79h-7.54Z"/><path d="M1.45,20.88c1,.99,2.34,1.49,4,1.49h17.06l-1.92-5.45H7.01c-1.04,0-1.56-.55-1.56-1.65V1.84L0,0v16.91c0,1.65.48,2.97,1.45,3.97Z"/><path d="M1.45,48.14c1,.99,2.34,1.49,4,1.49h17.06l-1.92-5.45H7.01c-1.04,0-1.56-.55-1.56-1.65v-13.42l-5.45-1.84v16.91c0,1.65.48,2.97,1.45,3.97Z"/></g></svg>