<?xml version="1.0" encoding="UTF-8"?><svg id="Layer_2" xmlns="http://www.w3.org/2000/svg" viewBox="0 0 295.22 60.84"><defs><style>.cls-1{fill:#0c0a1d;fill-rule:evenodd;}</style></defs><g id="Layer_1-2"><path class="cls-1" d="M0,20.72c0,11.06,9,20.06,20.06,20.06s20.06-8.99,20.06-20.06S31.11.67,20.06.67,0,9.66,0,20.72ZM6.69,20.72c0-7.38,5.99-13.37,13.37-13.37s13.37,5.99,13.37,13.37-5.99,13.37-13.37,13.37-13.37-5.99-13.37-13.37ZM39.13,46.49l-13.37,13.37c-.65.66-1.5.98-2.36.98s-1.7-.32-2.36-.98c-1.3-1.3-1.3-3.42,0-4.72l13.37-13.37c1.3-1.3,3.42-1.3,4.72,0,1.3,1.3,1.3,3.42,0,4.72ZM39.44,4.01c0-2.21,1.81-4.01,4.01-4.01s4.01,1.81,4.01,4.01-1.81,4.01-4.01,4.01-4.01-1.81-4.01-4.01ZM82.84,17.85v26.58h-6.79v-26.58h-8.78v-6.41h24.45v6.41h-8.88ZM101.71,33.1v11.34h-6.37V9.58h6.37v14.27c1.21-1.86,3.62-3.16,6.65-3.16,5.62,0,8.97,4.09,8.97,10.13v13.62h-6.37v-12.55c0-3.35-1.44-5.39-4.09-5.39-2.93,0-5.16,2.14-5.16,6.6ZM145.76,36.86c-1.39,4.69-6,8.09-11.9,8.09-7.11,0-12.18-5.11-12.18-12.18s5.16-12.08,12.22-12.08,12.46,4.88,12.13,13.62h-18.13c.28,2.74,2.32,5.11,6.27,5.11,2.23,0,4.18-.98,4.93-2.56h6.64ZM128.15,30.12h10.92c-.79-3.11-3.16-4.28-5.34-4.28-2.93,0-4.97,1.72-5.58,4.28ZM193.63,24.69c1.49,13.57-6.46,20.31-16.27,20.31s-17.38-7.48-17.38-17.06,7.3-17.06,17.29-17.06c6.93,0,13.34,4.09,15.57,10.32h-7.71c-1.63-2.42-4.69-3.81-7.85-3.81-6.32,0-10.5,4.65-10.5,10.55s4.18,10.55,10.6,10.55c5.34,0,8.55-2.93,9.29-7.48h-10.09v-6.32h17.06ZM204.74,33.33v11.11h-6.37v-23.24h6.37v3.72c.79-2.28,3.16-4,5.76-4,.65,0,1.35.05,2.14.28v6.46c-.98-.33-1.86-.51-2.88-.51-3.02,0-5.02,2.37-5.02,6.18ZM232.02,41.84c-1.02,1.49-3.49,3.11-6.69,3.11-6.18,0-10.92-5.53-10.92-12.13s4.74-12.13,10.92-12.13c3.21,0,5.67,1.63,6.69,3.11v-2.6h6.37v23.24h-6.37v-2.6ZM220.82,32.82c0,3.63,2.37,6.32,5.86,6.32s5.86-2.7,5.86-6.32-2.37-6.32-5.86-6.32-5.86,2.7-5.86,6.32ZM250.93,41.84v12.32h-6.37V21.2h6.37v2.6c1.07-1.49,3.53-3.11,6.74-3.11,6.18,0,10.92,5.53,10.92,12.13s-4.74,12.13-10.92,12.13c-3.21,0-5.67-1.63-6.74-3.11ZM250.42,32.82c0,3.63,2.37,6.32,5.86,6.32s5.86-2.7,5.86-6.32-2.37-6.32-5.86-6.32-5.86,2.7-5.86,6.32ZM279.61,33.1v11.34h-6.37V9.58h6.37v14.27c1.21-1.86,3.62-3.16,6.65-3.16,5.62,0,8.97,4.09,8.97,10.13v13.62h-6.37v-12.55c0-3.35-1.44-5.39-4.09-5.39-2.93,0-5.16,2.14-5.16,6.6Z"/></g></svg>