<?xml version="1.0" encoding="UTF-8"?><svg id="Layer_2" xmlns="http://www.w3.org/2000/svg" viewBox="0 0 218.95 55.24"><g id="Layer_1-2"><path d="M41.45,3.72c-4.25-2.45-8.84-3.72-13.83-3.72s-9.59,1.23-13.83,3.72S6.22,9.54,3.72,13.79C1.23,18.04,0,22.63,0,27.62s1.23,9.59,3.72,13.83,5.82,7.57,10.07,10.07,8.84,3.72,13.83,3.72,9.59-1.23,13.83-3.72,7.57-5.82,10.07-10.07c2.49-4.25,3.72-8.84,3.72-13.83s-1.23-9.59-3.72-13.83-5.82-7.57-10.07-10.07h0ZM29.33,37.6c-3.11,0-5.6-.88-7.53-2.67-1.31-1.23-2.14-2.72-2.58-4.47h29.77c-.31,2.54-1.05,4.9-2.19,7.13h-17.51.05ZM19.26,24.86c.39-1.71,1.27-3.2,2.54-4.42,1.88-1.8,4.42-2.72,7.53-2.72h17.6c1.14,2.23,1.84,4.6,2.1,7.13h-29.77ZM8.97,16.63c1.93-3.33,4.51-5.95,7.79-7.92s6.92-2.93,10.86-2.93,7.57.96,10.86,2.93c1.66,1.01,3.2,2.19,4.51,3.55h-13.92c-3.15,0-5.95.66-8.4,1.97s-4.38,3.11-5.74,5.43c-.96,1.62-1.57,3.37-1.84,5.25h-6.83c.35-2.93,1.23-5.69,2.72-8.23v-.04h0ZM38.48,46.53c-3.28,1.97-6.92,2.93-10.86,2.93s-7.57-.96-10.86-2.93-5.91-4.6-7.79-7.92c-1.45-2.49-2.36-5.21-2.72-8.1h6.83c.26,1.88.88,3.63,1.84,5.25,1.36,2.28,3.28,4.11,5.74,5.43s5.25,1.97,8.4,1.97h13.79c-1.31,1.31-2.76,2.45-4.38,3.41v-.04h0Z"/><path d="M99.76,36.51l-5.25-20.22c-.35-1.4-1.05-2.49-2.06-3.33-1.01-.83-2.23-1.23-3.68-1.23s-2.58.39-3.63,1.23c-1.01.83-1.71,1.93-2.06,3.33l-5.21,20.09-6.48-24.16h-7.49l7.84,26.57c.92,3.28,2.89,4.9,5.91,4.9s2.84-.44,3.81-1.31c.92-.88,1.62-2.06,2.01-3.59l5.25-20.36,5.21,20.36c.83,3.28,2.8,4.9,5.91,4.9s4.95-1.62,5.91-4.9l7.79-26.57h-7.44l-6.39,24.29h.04,0Z"/><path d="M139.64,13.57c-2.54-1.45-5.38-2.19-8.54-2.19s-5.95.74-8.45,2.19c-2.54,1.45-4.51,3.41-5.95,5.91s-2.14,5.21-2.14,8.19.7,5.74,2.14,8.19c1.45,2.49,3.41,4.42,5.95,5.91,2.54,1.45,5.34,2.19,8.45,2.19s6-.74,8.54-2.19,4.51-3.41,5.95-5.91,2.14-5.21,2.14-8.19-.7-5.74-2.14-8.19c-1.45-2.49-3.41-4.42-5.95-5.91h0ZM139.37,32.7c-.79,1.53-1.93,2.71-3.33,3.59-1.4.88-3.06,1.31-4.86,1.31s-3.46-.44-4.86-1.31c-1.4-.88-2.54-2.06-3.33-3.55-.79-1.49-1.18-3.2-1.18-5.08s.39-3.5,1.18-5.03,1.93-2.72,3.33-3.59c1.4-.88,3.02-1.31,4.86-1.31s3.46.44,4.86,1.31c1.4.88,2.54,2.06,3.33,3.55s1.18,3.2,1.18,5.08-.39,3.5-1.18,5.03h0Z"/><path d="M162.01,14.01c-1.45,1.05-2.45,2.49-3.11,4.25v-6.04h-7.05v30.9h7.13v-13.74c0-3.68.88-6.3,2.58-7.92,1.75-1.62,4.2-2.45,7.44-2.49h.18v-7.13h-.22c-2.67,0-4.99.74-6.96,2.19h0Z"/><path d="M181.61,36.03c-.66-.79-1.01-1.97-1.01-3.63V.4h-7.13v32.92c0,3.41.92,5.95,2.72,7.57,1.8,1.62,4.51,2.41,8.14,2.41h.7v-6.04c-1.62,0-2.8-.44-3.46-1.23h.04,0Z"/><path d="M211.78.4v15.71c-.66-.96-1.53-1.8-2.58-2.54-2.14-1.45-4.64-2.19-7.57-2.19s-5.78.7-8.19,2.1c-2.36,1.4-4.2,3.33-5.51,5.82-1.31,2.49-1.97,5.3-1.97,8.36s.66,5.91,1.93,8.36c1.31,2.49,3.15,4.42,5.51,5.82,2.36,1.4,5.12,2.1,8.23,2.1s3.68-.35,5.34-1.01c1.62-.66,2.98-1.57,4.07-2.8.31-.31.53-.66.79-1.01v3.98h7.13V.4h-7.18ZM210.77,32.79c-.79,1.53-1.93,2.76-3.37,3.63s-3.11,1.31-4.95,1.31-3.5-.44-4.9-1.31-2.49-2.1-3.24-3.63-1.14-3.24-1.14-5.12.39-3.59,1.14-5.12c.74-1.53,1.84-2.76,3.24-3.63s3.02-1.31,4.9-1.31,3.55.44,4.95,1.31c1.45.88,2.54,2.1,3.37,3.63.79,1.53,1.18,3.24,1.18,5.12s-.39,3.59-1.18,5.12Z"/></g></svg>